<?xml version="1.0" encoding="iso-8859-1"?>
<!-- Uploaded to: SVG Repo, www.svgrepo.com, Generator: SVG Repo Mixer Tools -->
<svg fill="#fff" height="8px" width="8px" version="1.1" id="Capa_1" xmlns="http://www.w3.org/2000/svg" xmlns:xlink="http://www.w3.org/1999/xlink" 
	 viewBox="0 0 489.1 489.1" xml:space="preserve">
<g>
	<g>
		<path d="M303.4,159.15c-4.8-4.8-12.5-4.8-17.3,0s-4.8,12.5,0,17.3l55.9,55.9H12.2c-6.8,0-12.2,5.5-12.2,12.2
			c0,6.8,5.5,12.3,12.2,12.3h329.7l-55.9,55.9c-4.8,4.8-4.8,12.5,0,17.3c2.4,2.4,5.5,3.6,8.7,3.6s6.3-1.2,8.7-3.6l76.8-76.8
			c2.3-2.3,3.6-5.4,3.6-8.7c0-3.2-1.3-6.4-3.6-8.7L303.4,159.15z"/>
		
	</g>
</g>
</svg>