<svg xmlns="http://www.w3.org/2000/svg" width="34" height="34" viewBox="0 0 34 34">
  <g id="charging-station" transform="translate(-29 -970)">
    <circle id="Ellipse_21" data-name="Ellipse 21" cx="17" cy="17" r="17" transform="translate(29 970)" fill="#72ba45"/>
    <path id="Path_561" data-name="Path 561" d="M14.322,8.283c.042.576.127,1.156.214,1.732a18.942,18.942,0,0,1,.237,2.091,4.189,4.189,0,0,1-.374,2.2,1.713,1.713,0,0,1-1.687.882h0a1.819,1.819,0,0,1-1.819-1.553,7.228,7.228,0,0,1-.095-2.507,10.48,10.48,0,0,0,.136-1.961,5.515,5.515,0,0,0-.461-2.033,1.56,1.56,0,0,0-.85-.813v8.123a1.109,1.109,0,0,1,.312.222,1.14,1.14,0,0,1,.335.813v.813a.371.371,0,0,1-.375.365H.371A.371.371,0,0,1,0,16.283V15.47a1.141,1.141,0,0,1,.335-.813A1.162,1.162,0,0,1,.542,14.5V1.968A1.971,1.971,0,0,1,2.515,0H7.636A1.983,1.983,0,0,1,9.613,1.977V5.557c1.54.336,1.952,2.121,2.051,3.593a7.679,7.679,0,0,1-.127,1.983,6.607,6.607,0,0,0,.066,2.316,1.147,1.147,0,0,0,1.117,1h.007a1.029,1.029,0,0,0,1.019-.508,3.469,3.469,0,0,0,.271-1.8,18.942,18.942,0,0,0-.228-2.013c-.089-.6-.18-1.208-.222-1.839h-.125l-.012-.8c-.949-.092-1.307-.731-1.307-1.648V5.421h-.136a.224.224,0,0,1-.224-.224V4.942a.224.224,0,0,1,.224-.224h.663V3.546A.351.351,0,0,1,13,3.193h0a.352.352,0,0,1,.352.352V4.718h1.037V3.546a.352.352,0,0,1,.352-.352h0a.352.352,0,0,1,.354.352V4.718h.678A.224.224,0,0,1,16,4.942V5.2a.224.224,0,0,1-.218.221h-.175v.468c0,.905-.306,1.445-1.186,1.586V8.28Zm-8.6,1.378h.934a.245.245,0,0,1,.245.245.251.251,0,0,1-.042.136l-2.224,3.8a.244.244,0,0,1-.449-.176l.328-2.327-1.106.019a.244.244,0,0,1-.247-.239.232.232,0,0,1,.034-.129L5.381,7.19a.245.245,0,0,1,.447.16L5.715,9.661ZM2.963,1.7H7.275a.813.813,0,0,1,.575.239c.009.011.02.02.03.033a.813.813,0,0,1,.211.542V5.264a.813.813,0,0,1-.813.813H2.963a.813.813,0,0,1-.573-.239h0a.813.813,0,0,1-.239-.575V2.511a.813.813,0,0,1,.239-.575.327.327,0,0,1,.033-.028A.813.813,0,0,1,2.964,1.7ZM9.276,15.111H.984a.407.407,0,0,0-.123.084.4.4,0,0,0-.117.281v.439H9.52v-.439a.4.4,0,0,0-.244-.366Z" transform="translate(38 979)" fill="#fff" fill-rule="evenodd"/>
  </g>
</svg>
