
<svg
      xmlns="http://www.w3.org/2000/svg"
      width="22.403"
      height="14"
      viewBox="0 0 22.403 14"
      
    >
      <g transform="translate(-15.975 -106)">
        <path
          d="M27.176,120a10.337,10.337,0,0,1-4.387-1.05,16.655,16.655,0,0,1-3.481-2.249,21.287,21.287,0,0,1-3.183-3.253.742.742,0,0,1,0-.9,21.288,21.288,0,0,1,3.183-3.253,16.655,16.655,0,0,1,3.481-2.249A10.337,10.337,0,0,1,27.176,106a10.337,10.337,0,0,1,4.387,1.05,16.655,16.655,0,0,1,3.481,2.249,21.023,21.023,0,0,1,3.183,3.253.742.742,0,0,1,0,.9,21.287,21.287,0,0,1-3.183,3.253,16.655,16.655,0,0,1-3.481,2.249A10.337,10.337,0,0,1,27.176,120Zm-9.492-7c1.171,1.386,5.04,5.507,9.492,5.507S35.5,114.386,36.669,113c-1.171-1.386-5.04-5.507-9.492-5.507S18.856,111.614,17.684,113Z"
          transform="translate(0 0)"
          fill=""
        />
        <path
          d="M187.36,190.72a3.36,3.36,0,1,1,3.36-3.36A3.364,3.364,0,0,1,187.36,190.72Zm0-5.227a1.867,1.867,0,1,0,1.867,1.867A1.866,1.866,0,0,0,187.36,185.493Z"
          transform="translate(-160.184 -74.36)"
          fill=""
        />
      </g>
    </svg>