<svg
          className="connected-kerb-logo h-[40px]"
          viewBox="0 0 410.98 92.89"
        >
          <g fill="#fff">
            <path d="M101.54 42.15A7.31 7.31 0 0 0 93 39.84a6.73 6.73 0 0 0-3.68 3.75 7.87 7.87 0 0 0 0 5.68 7 7 0 0 0 1.48 2.27 7 7 0 0 0 5 2.07 7.78 7.78 0 0 0 5.81-2.76v8l-.68.24a19.72 19.72 0 0 1-2.89.81 13.53 13.53 0 0 1-12.13-3.61 14.25 14.25 0 0 1-3-4.37 13.23 13.23 0 0 1-1.13-5.52 13.4 13.4 0 0 1 1.11-5.49 13.57 13.57 0 0 1 7.35-7.12 13.67 13.67 0 0 1 5.19-1 14.11 14.11 0 0 1 3.05.33 17.76 17.76 0 0 1 3.14 1zM105 46.45a13.58 13.58 0 0 1 4-9.74 13.6 13.6 0 0 1 4.53-2.9 16.46 16.46 0 0 1 11.57 0 13.73 13.73 0 0 1 4.56 2.9 13.17 13.17 0 0 1 3 4.36 14.18 14.18 0 0 1 0 10.76 13.17 13.17 0 0 1-3 4.36 13.73 13.73 0 0 1-4.56 2.9 16.46 16.46 0 0 1-11.57 0 13.6 13.6 0 0 1-4.53-2.9 13.58 13.58 0 0 1-4-9.74zm7 0a6.89 6.89 0 0 0 .59 2.85 7 7 0 0 0 1.58 2.27 6.92 6.92 0 0 0 2.32 1.5 7.56 7.56 0 0 0 5.61 0 7.21 7.21 0 0 0 2.34-1.5 7.07 7.07 0 0 0 1.6-2.27 6.88 6.88 0 0 0 .58-2.85 7 7 0 0 0-.58-2.86 7.47 7.47 0 0 0-9.55-3.76 7.05 7.05 0 0 0-2.32 1.49 7.24 7.24 0 0 0-1.58 2.27 7 7 0 0 0-.52 2.86zM138 59.42V33.48h6.74l12.46 15.86V33.48h6.71v25.94h-6.71l-12.45-15.86v15.86zM169.35 59.42V33.48h6.74l12.45 15.86V33.48h6.71v25.94h-6.71l-12.45-15.86v15.86zM215.44 39.19h-8v4.34H215v5.71h-7.57v4.47h8v5.71h-14.74V33.48h14.75zM239 42.15a7.32 7.32 0 0 0-8.59-2.31 6.73 6.73 0 0 0-3.68 3.75 7.87 7.87 0 0 0 0 5.68 7 7 0 0 0 1.48 2.27 7 7 0 0 0 5 2.07 7.8 7.8 0 0 0 5.79-2.76v8l-.69.24a19.38 19.38 0 0 1-2.89.81 13.53 13.53 0 0 1-12.13-3.61 14.25 14.25 0 0 1-3-4.37 13.23 13.23 0 0 1-1.13-5.52 13.4 13.4 0 0 1 1.11-5.49 13.57 13.57 0 0 1 7.35-7.12 13.67 13.67 0 0 1 5.19-1 14.18 14.18 0 0 1 3.05.33 17.85 17.85 0 0 1 3.15 1zM253.08 39.19v20.23h-6.74V39.19h-5.54v-5.71h17.82v5.71zM276.37 39.19h-8v4.34h7.57v5.71h-7.57v4.47h8v5.71h-14.76V33.48h14.76zM281.22 33.48h10a11.82 11.82 0 0 1 5 1.07 13.34 13.34 0 0 1 4.05 2.84 13.19 13.19 0 0 1 2.73 4.12 12.72 12.72 0 0 1 0 9.84 13.22 13.22 0 0 1-2.72 4.15 13.41 13.41 0 0 1-4.06 2.85 11.89 11.89 0 0 1-5 1.07h-10zM288 53.71h1.55a8.32 8.32 0 0 0 3.13-.55 6.5 6.5 0 0 0 3.77-3.8 8.27 8.27 0 0 0 .5-2.91 8.06 8.06 0 0 0-.52-2.89 6.51 6.51 0 0 0-3.78-3.82 8.43 8.43 0 0 0-3.1-.55H288z"></path>
            <path
              d="M326.7 44.18l8.22-10.7h8.32L333 45.76l11.2 13.66h-8.73l-8.77-11.25v11.25H320V33.48h6.75zM362 39.19h-8v4.34h7.57v5.71H354v4.47h8v5.71h-14.8V33.48H362zM388.38 59.42H380l-6.43-10v10h-6.74V33.48h10.47a10.18 10.18 0 0 1 3.78.64 7.31 7.31 0 0 1 2.67 1.73 7.48 7.48 0 0 1 1.58 2.55 8.78 8.78 0 0 1 .53 3.1 7.58 7.58 0 0 1-1.42 4.79 7.21 7.21 0 0 1-4.22 2.5zm-14.83-14.35h1.27a4.91 4.91 0 0 0 3.06-.82 3.17 3.17 0 0 0 0-4.75 4.91 4.91 0 0 0-3.06-.83h-1.27zM391.2 33.48h10a7.72 7.72 0 0 1 5.44 1.72 6.45 6.45 0 0 1 1.85 4.95 6.75 6.75 0 0 1-.7 3.26 6 6 0 0 1-2.15 2.18 8.08 8.08 0 0 1 2.46.84 5.39 5.39 0 0 1 1.65 1.4 5.25 5.25 0 0 1 .91 1.85 8.74 8.74 0 0 1 .28 2.21 7.86 7.86 0 0 1-.64 3.23 6.59 6.59 0 0 1-1.79 2.37 7.53 7.53 0 0 1-2.8 1.45 13.31 13.31 0 0 1-3.72.48H391.2zm6.74 10.18h1.24c2.11 0 3.16-.83 3.16-2.51s-1-2.51-3.16-2.51h-1.24zm0 10.53h1.48a7.58 7.58 0 0 0 3.64-.65 2.55 2.55 0 0 0 0-4.2 7.46 7.46 0 0 0-3.64-.65h-1.48z"
              fill="#8dc63f"
            ></path>
            <path
              d="M59.52 44.48c0 .49.08 1 .1 1.46a21.88 21.88 0 0 1-.13 2.92c-.06.49-.13 1-.22 1.46a18.41 18.41 0 0 1-.72 2.74 19.82 19.82 0 0 1-4.4 7.28l3.49 2.8a24.48 24.48 0 0 0 3.81-5.56 24.78 24.78 0 0 0 1.91-5.16 18 18 0 0 0 .39-1.94c.07-.43.13-.86.18-1.3s.07-.72.1-1.08v-.73a.59.59 0 0 1 0-.13v-1.42a.77.77 0 0 1 0-.15v-.85c0-.29 0-.53-.07-.8s-.07-.67-.12-1-.12-.78-.2-1.16a25.12 25.12 0 0 0-.73-2.86 24.76 24.76 0 0 0-4.16-7.82c-.39-.5-.81-1-1.25-1.45L54 32.55a19.86 19.86 0 0 1 3.55 5.1 20.36 20.36 0 0 1 1.97 6.83z"
              fill="#8dc63f"
            ></path>
            <path
              d="M51.4 40.74a13.23 13.23 0 0 1 1.16 7.8 12.34 12.34 0 0 1-.41 1.8 13.16 13.16 0 0 1-3.33 5.59l-.07.07 3.49 2.8c.36-.38.71-.77 1-1.19A17.69 17.69 0 0 0 57 48.94c.06-.39.1-.78.13-1.18s0-.83 0-1.19A18.45 18.45 0 0 0 57 44.3c-.06-.51-.15-1-.26-1.52a17.29 17.29 0 0 0-1.53-4.31 17.78 17.78 0 0 0-3.14-4.38L48.6 36.9l.4.39a13.52 13.52 0 0 1 2.4 3.45z"
              fill="#8dc63f"
            ></path>
            <path
              d="M43.57 41.65a5.86 5.86 0 0 1 .89 1A6.43 6.43 0 0 1 45.67 46a6.18 6.18 0 0 1 0 1.29 6.63 6.63 0 0 1-.31 1.47 6 6 0 0 1-1.8 2.68l-.08.07a.5.5 0 0 0-.1.19l3.45 2.77.4-.37a10.86 10.86 0 0 0 3.06-7.55c0-.32 0-.64-.05-1a8.75 8.75 0 0 0-.24-1.23 10.53 10.53 0 0 0-.95-2.71 10.65 10.65 0 0 0-2.42-3.15l-3.33 2.66a.53.53 0 0 0 .16.48z"
              fill="#8dc63f"
            ></path>
            <path d="M51.86 69.81L36.13 57.18v17.44A2.35 2.35 0 0 1 33.79 77h-10a2.34 2.34 0 0 1-2.34-2.34V17.75a2.34 2.34 0 0 1 2.34-2.34h10a2.35 2.35 0 0 1 2.34 2.34v16l15.73-12.62 5.68-4.56V12.2A12.24 12.24 0 0 0 45.34 0H12.2A12.24 12.24 0 0 0 0 12.2v68.49a12.24 12.24 0 0 0 12.2 12.2h33.14a12.24 12.24 0 0 0 12.2-12.2v-6.32z"></path>
            <circle cx="38.51" cy="46.45" r="3.08" fill="#8dc63f"></circle>
          </g>
        </svg>