<svg xmlns="http://www.w3.org/2000/svg" width="27" height="38.25" viewBox="0 0 27 38.25">
  <g id="Group_2449" data-name="Group 2449" transform="translate(-677 -730.5)">
    <path id="Icon_awesome-map-marker" data-name="Icon awesome-map-marker" d="M12.113,37.478C1.9,21.742,0,20.127,0,14.344,0,6.422,6.044,0,13.5,0S27,6.422,27,14.344c0,5.783-1.9,7.4-12.113,23.135a1.633,1.633,0,0,1-2.775,0Z" transform="translate(677 730.5)" fill="#2f464a"/>
    <g id="Group_2444" data-name="Group 2444">
      <circle id="Ellipse_13" data-name="Ellipse 13" cx="9" cy="9" r="9" transform="translate(682 735)" fill="#2f464a"/>
      <g id="Group_2443" data-name="Group 2443" transform="translate(0.749 -0.031)">
        <path id="Path_553" data-name="Path 553" d="M54.646,31.457c0,.057.009.117.012.171a2.564,2.564,0,0,1-.015.342c-.007.057-.015.117-.026.171a2.156,2.156,0,0,1-.084.321,2.321,2.321,0,0,1-.515.853l.409.328a2.867,2.867,0,0,0,.446-.651,2.9,2.9,0,0,0,.224-.6,2.107,2.107,0,0,0,.046-.227c.008-.05.015-.1.021-.152s.008-.084.012-.126V31.8a.07.07,0,0,1,0-.015v-.166a.091.091,0,0,1,0-.018v-.1a.354.354,0,0,0-.008-.094c-.008-.032-.008-.078-.014-.117s-.014-.091-.023-.136a2.942,2.942,0,0,0-.085-.335,2.9,2.9,0,0,0-.487-.916,2.028,2.028,0,0,0-.146-.17l-.41.33a2.326,2.326,0,0,1,.416.6A2.384,2.384,0,0,1,54.646,31.457Z" transform="translate(639.575 711.783)" fill="#fff"/>
        <path id="Path_554" data-name="Path 554" d="M48.928,34.869a1.549,1.549,0,0,1,.136.913,1.445,1.445,0,0,1-.048.211,1.541,1.541,0,0,1-.39.655l-.008.008.409.328a1.191,1.191,0,0,0,.117-.139,2.072,2.072,0,0,0,.44-1.015c.007-.046.012-.091.015-.138s0-.1,0-.139a2.159,2.159,0,0,0-.015-.266c-.007-.06-.018-.117-.03-.178a2.025,2.025,0,0,0-.179-.5,2.082,2.082,0,0,0-.368-.513l-.406.329.047.046A1.583,1.583,0,0,1,48.928,34.869Z" transform="translate(644.342 707.933)" fill="#fff"/>
        <path id="Path_555" data-name="Path 555" d="M43.324,38.834a.686.686,0,0,1,.1.117.753.753,0,0,1,.142.392.722.722,0,0,1,0,.151.776.776,0,0,1-.036.172.7.7,0,0,1-.211.314l-.009.008a.059.059,0,0,0-.012.022l.4.324.047-.043a1.272,1.272,0,0,0,.358-.884.817.817,0,0,0-.006-.117,1.023,1.023,0,0,0-.028-.144,1.233,1.233,0,0,0-.111-.317,1.247,1.247,0,0,0-.283-.369l-.39.312a.062.062,0,0,0,.019.056Z" transform="translate(649.029 704.075)" fill="#fff"/>
        <path id="Path_556" data-name="Path 556" d="M6.073,8.175,4.231,6.7V8.738a.275.275,0,0,1-.274.279H2.786a.274.274,0,0,1-.274-.274V2.079A.274.274,0,0,1,2.786,1.8H3.957a.275.275,0,0,1,.274.274V3.952L6.073,2.474l.665-.534V1.429A1.433,1.433,0,0,0,5.309,0H1.429A1.433,1.433,0,0,0,0,1.429v8.02a1.433,1.433,0,0,0,1.429,1.429H5.309A1.433,1.433,0,0,0,6.738,9.449v-.74Z" transform="translate(687.251 738.031)" fill="#fff"/>
        <ellipse id="Ellipse_14" data-name="Ellipse 14" cx="0.361" cy="0.361" rx="0.361" ry="0.361" transform="translate(691.4 743.11)" fill="#fff"/>
      </g>
    </g>
  </g>
</svg>
