<svg xmlns="http://www.w3.org/2000/svg" width="34" height="34" viewBox="0 0 34 34">
  <g id="watch-icn" transform="translate(-29 -910)">
    <circle id="Ellipse_12" data-name="Ellipse 12" cx="17" cy="17" r="17" transform="translate(29 910)" fill="#314448"/>
    <path id="Path_551" data-name="Path 551" d="M969,4612a8,8,0,1,1,8-8A8.011,8.011,0,0,1,969,4612Zm0-14.4a6.4,6.4,0,1,0,6.4,6.4A6.408,6.408,0,0,0,969,4597.6Zm-.566,6.968,3.2,3.2,1.131-1.136-2.966-2.96V4599.2h-1.6v4.8A.8.8,0,0,0,968.434,4604.568Z" transform="translate(-923 -3677)" fill="#fff" fill-rule="evenodd"/>
  </g>
</svg>
